<?xml version="1.0" encoding="utf-8"?>
<!-- Generator: Adobe Illustrator 26.0.2, SVG Export Plug-In . SVG Version: 6.00 Build 0)  -->
<svg version="1.1" id="Layer_1" xmlns="http://www.w3.org/2000/svg" xmlns:xlink="http://www.w3.org/1999/xlink" x="0px" y="0px"
	 width="128px" height="128px" viewBox="0 0 128 128" style="enable-background:new 0 0 128 128;" xml:space="preserve">
<style type="text/css">
	.st0{clip-path:url(#SVGID_00000137853260952339803930000007604749836510316177_);}
	.st1{fill:url(#SVGID_00000042717076200326116570000003492220263836868784_);}
	.st2{fill:#FFFFFF;}
	.st3{opacity:0.8;filter:url(#a);}
	
		.st4{fill:none;stroke:url(#SVGID_00000026150047929618761010000002165154062706099125_);stroke-width:1.0169;stroke-miterlimit:10;}
	
		.st5{fill:none;stroke:url(#SVGID_00000027588652352446242930000005741262672870526369_);stroke-width:1.0169;stroke-miterlimit:10;}
	
		.st6{fill:none;stroke:url(#SVGID_00000058580669297919085930000000718847666036823955_);stroke-width:0.9533;stroke-miterlimit:10;}
	
		.st7{fill:none;stroke:url(#SVGID_00000008135576106256552570000017727325159063643810_);stroke-width:0.8898;stroke-miterlimit:10;}
	
		.st8{fill:none;stroke:url(#SVGID_00000095330540662806484550000018340206044311274399_);stroke-width:0.8262;stroke-miterlimit:10;}
	
		.st9{fill:none;stroke:url(#SVGID_00000036966641329427986190000000162693204127468186_);stroke-width:0.8262;stroke-miterlimit:10;}
</style>
<filter  color-interpolation-filters="sRGB" filterUnits="userSpaceOnUse" height="170.041" id="a" width="178.271" x="-14.5088" y="-13.5083">
	<feFlood  flood-opacity="0" result="BackgroundImageFix"></feFlood>
	<feBlend  in="SourceGraphic" in2="BackgroundImageFix" mode="normal" result="shape"></feBlend>
	<feColorMatrix  in="SourceAlpha" result="hardAlpha" type="matrix" values="0 0 0 0 0 0 0 0 0 0 0 0 0 0 0 0 0 0 127 0">
		</feColorMatrix>
	<feOffset  dx=".254221" dy=".381332"></feOffset>
	<feGaussianBlur  stdDeviation=".317776"></feGaussianBlur>
	<feComposite  in2="hardAlpha" k2="-1" k3="1" operator="arithmetic"></feComposite>
	<feColorMatrix  type="matrix" values="0 0 0 0 0 0 0 0 0 0 0 0 0 0 0 0 0 0 0.12 0"></feColorMatrix>
	<feBlend  in2="shape" mode="normal" result="effect1_innerShadow_935_3316"></feBlend>
</filter>
<g>
	<defs>
		<path id="SVGID_1_" d="M64,1.5L64,1.5c34.5,0,62.5,28,62.5,62.5l0,0c0,34.5-28,62.5-62.5,62.5l0,0c-34.5,0-62.5-28-62.5-62.5l0,0
			C1.5,29.5,29.5,1.5,64,1.5z"/>
	</defs>
	<clipPath id="SVGID_00000176742347882102720210000002698420703393996423_">
		<use xlink:href="#SVGID_1_"  style="overflow:visible;"/>
	</clipPath>
	<g style="clip-path:url(#SVGID_00000176742347882102720210000002698420703393996423_);">
		
			<radialGradient id="SVGID_00000031909842985945291230000015971678060409316283_" cx="-0.1351" cy="128.3849" r="0.8503" gradientTransform="matrix(0 82.5756 82.5756 0 -10537.4648 81.7023)" gradientUnits="userSpaceOnUse">
			<stop  offset="0.1667" style="stop-color:#073183"/>
			<stop  offset="1" style="stop-color:#0054F9"/>
		</radialGradient>
		<path style="fill:url(#SVGID_00000031909842985945291230000015971678060409316283_);" d="M64,1.5L64,1.5c34.5,0,62.5,28,62.5,62.5
			l0,0c0,34.5-28,62.5-62.5,62.5l0,0c-34.5,0-62.5-28-62.5-62.5l0,0C1.5,29.5,29.5,1.5,64,1.5z"/>
		<g>
			<path class="st2" d="M106.5,44.5c-0.3,1.5-0.6,2.3-0.9,3.1l0,0c-0.4,0.9-0.8,2-1.2,4.1c-0.2,0.8-0.2,1.5-0.3,2l0,0l0,0
				c-0.1,0.9-0.2,1.5-0.5,2.5c-0.3,0.9-0.8,2.3-1.9,3.8c-0.9,1.2-2.5,3.3-4.6,3.6c-0.2,0-0.6,0-0.7,0c-5.9-3-11-5.2-12.7-5.7
				c-2-0.6-1.8-5-1.5-9c0.1-1.8,0.2-3.4,0.1-4.8c-0.3-5-1.2-10.4-5.5-13c-2.6-1.6-5.9-2-9.1-2c0.6-0.3,1.2-0.7,2-1.1l0,0
				c1.9-1.1,4.2-2.4,6.5-2.7c0.8-0.1,1.5-0.2,2.2-0.2c4.7-0.5,8.7-1,12.9,0.5c1.9,0.7,5.9,2.9,6.9,4.9c0.7,1.4,1.9,2.6,4.3,4.8
				c1.3,1.2,2.1,1.8,2.7,2.3l0,0c0.9,0.7,1,0.8,1.3,1.4C107.2,40.5,106.9,42.1,106.5,44.5z"/>
			<path class="st2" d="M84.9,64.8c0.3,0.1,0.5,0.5,0.3,0.8c-0.6,0.9-1.3,2.2-2.1,3.8c-0.4,0.8-0.8,1.5-1.1,2
				c-1.1,2-1.2,3.6-1.3,4.9c-0.1,1.4-0.1,2-1,2.6c-0.7,0.5-1.4,0.6-6.2,1.4c-0.8,0.1-1.2,0.3-1.6,0.4c-0.1,0-0.1,0-0.2,0.1
				C71.3,81,71,80.7,71,80.3c0-0.7,0.1-1.5,0.1-2.5v-0.2c0-1,0-1.7,0-2.3C71,74,71,73.5,71.3,72.9c0.4-0.7,0.7-0.9,1.2-1.2
				c0.7-0.5,1.7-1.1,3.2-3.1c0.8-1.1,1-1.7,1.1-2.2c0-0.2,0.1-0.3,0.7-0.7c0.6-0.5,2.6-2,5.1-1.5C83.2,64.3,84,64.5,84.9,64.8
				L84.9,64.8z"/>
			<path class="st2" d="M65.7,87.3c-0.1,0.1-0.2,0.2-0.4,0.2c-0.5,0-0.9-0.1-1.1-0.4c-0.5-0.6-0.4-1.8-0.3-2.6l2.1-0.5
				C66.1,85.1,66.2,86.7,65.7,87.3z"/>
			<path class="st2" d="M65.9,79.9c0,0.3-0.1,0.6-0.1,1c0,0.1,0,0.3,0,0.4c0,0.3,0,0.9,0,1.1c-0.6,0.2-1.2,0.2-1.9,0.2
				c0-0.2,0-0.5,0-0.7c0-0.2,0-0.3,0-0.5c0-0.2,0-0.3,0-0.5c0-0.4,0-1,0.1-1.2c0.2,0,0.4-0.1,0.6-0.1c0.4-0.1,1-0.2,1.3-0.2
				C65.9,79.5,65.9,79.7,65.9,79.9z"/>
			<path class="st2" d="M62.1,86.7c-0.1,1.1-0.4,2.4-1.4,2.6c-0.4,0.1-0.7,0-0.8-0.2c-0.7-0.6-0.8-2.5-0.7-3.8c0.4,0,1-0.1,1.7-0.2
				c0.4-0.1,0.8-0.2,1.2-0.3C62.1,85.2,62.1,85.9,62.1,86.7z"/>
			<path class="st2" d="M61.6,82.9l-2.2,0.8c0.1-0.9,0.3-2.1,0.3-2.9c0-0.6,0.2-0.7,0.2-0.8c0,0,0,0,0.1,0c0,0,0,0,0,0l0,0l1.4-0.1
				C61.6,80.5,61.6,82,61.6,82.9z"/>
			<path class="st2" d="M58,82.2c-0.1,0.3-0.3,1.3-0.4,2L54.8,84c0.2-0.9,0.4-1.7,0.6-2.4c0.2-0.7,0.5-1.2,0.7-1.4
				c0.3-0.2,0.9-0.2,1.3,0.1C58.1,80.9,58.2,81.5,58,82.2z"/>
			<path class="st2" d="M56.9,90.7c-0.2,0.3-0.5,0.4-0.8,0.5c-0.3,0-0.5,0-0.7-0.2c-0.9-0.8-0.8-3.5-0.8-4.7c1.2-0.3,2.4-0.5,3-0.5
				C57.8,86.8,57.8,89.6,56.9,90.7z"/>
			<path class="st2" d="M53.3,84c-0.1,0.4-0.3,0.7-0.4,1c-0.3,0.1-1.3,0-2.3-0.2l0.7-4.4c1.1-0.3,2.5-0.4,2.8-0.1
				C54.5,80.8,53.7,83,53.3,84z"/>
			<path class="st2" d="M52,91.4c-0.5,0.7-1.4,1-2.5,1c-0.8,0-1.1-0.3-1.2-0.5c-0.6-1,0-3.3,0.6-4.8l3.8,0.2c0,0.3,0.1,0.6,0.1,0.9
				C52.9,89.2,52.7,90.5,52,91.4z"/>
			<path class="st2" d="M83.3,59.5c-3.4-1-3.1-5.9-2.8-10.8c0.1-1.7,0.2-3.3,0.1-4.6c-0.3-4.5-1-9.4-4.6-11.6
				c-3.9-2.4-10.3-1.8-14.2-1.3c0,0,0,0,0,0c0,0,0,0,0,0c-1.4,0.4-2.8,0.7-3.8,0.7c-2.3-0.1-4.1-1.1-5.7-2c-1.2-0.7-2.3-1.3-3.3-1.3
				c-0.1,0-0.1,0-0.2,0c-3,0.2-4.5,0.9-5.7,2.1c-0.3,0.3-0.7,1.1-2,4.8c-0.6,1.9-0.8,2.9-0.9,3.9c-0.1,0.9-0.2,1.8-0.7,3.2
				c-0.3,1-0.6,1.8-0.8,2.6c-0.6,2.1-1.1,3.8-2.6,5.8c-0.2,0.2-0.4,0.6-0.6,1c-0.3,0.5-0.8,1.2-1.3,2c-0.4,0.5-1.3,2.6-1.2,3.2
				c0.1,1,0.4,1.6,0.8,2.3c0.4,0.7,0.8,1.5,0.9,2.6l0,0.2c0.1,1.7-0.1,2.6-3.4,5.6c-2.1,1.9-3.6,3.7-4.6,5.1c-0.1,0.1,0,0.3,0.2,0.3
				c0,0,0.1,0,0.1,0c0.1,0,0.1,0,0.2,0c0.1,0,0.1,0,0.2,0c0.1,0,0.1,0,0.2,0c0.8,0.1,1.6,0.4,2.1,1c0.1,0.1,0.3,0.1,0.4,0.1
				c0.5-0.2,1.1-0.2,1.7-0.1c0.7,0.1,1.4,0.3,1.8,0.7c0.2,0.2,0.4,0.2,0.7,0.2c0.5-0.1,1.1-0.1,1.6,0.1c0.4,0.1,0.7,0.4,1,0.6
				c0.3,0.3,0.7,0.3,1,0.1c0.1-0.1,0.3-0.1,0.4-0.2c0.7-0.2,1.5-0.1,2.2,0.1c0.3,0.1,0.7,0.2,1,0.4c0.5,0.3,0.8,0.8,1.1,1.4
				c0.2,0.4,0.7,0.6,1.1,0.3c0.4-0.3,0.8-0.4,1.2-0.2c0.2,0.1,0.3,0.2,0.4,0.3c0.3,0.3,0.7,0.6,1.1,0.5c1.1-0.3,2.4-0.1,3.4,0.4
				c0.4,0.2,0.7,0.5,1,0.9c0,0,0,0,0,0c0,0,0,0,0,0l0-0.2c0-0.1,0.1-0.2,0.2-0.2l0.2-0.1c0.6-0.2,3.4-1,4.5,0.2c0,0,0.1,0.1,0.2,0
				c0.1-0.2,0.3-0.3,0.3-0.3c0.7-0.4,1.9-0.5,2.7,0.2c0.2,0.1,0.4,0.1,0.6-0.1c0.1-0.1,0.2-0.2,0.3-0.3c0.3-0.2,0.6-0.4,1-0.3
				l1.5-0.1c0.4,0,1.6-0.1,2-0.2c0,0,0.1,0,0.1,0c0.2,0,0.4-0.1,0.6-0.1c0.7-0.2,1.6-0.3,2.3,0c0.7,0.3,0.6,1.1,0.5,1.7
				c0,0.3-0.1,0.6-0.1,0.8c0,0.1,0,0.3,0,0.4c0,0.6,0,1.1-0.1,1.5c0,0,0,0,0,0c0,0,0,0,0,0l0.1,0.3c0.1,0.3,0.4,0.5,0.7,0.3
				c0.5-0.3,1.1-0.7,1.2-1c0,0,0,0,0-0.1c0-0.1,0.1-0.2,0.1-0.5c0.1-0.6,0.2-1.7,0.2-4.1c0-0.1,0-0.2,0-0.3c0-0.9,0-1.6,0-2.2
				C69.2,74,69.1,73,69.8,72c0.6-1,1.2-1.4,1.8-1.7c0.7-0.4,1.4-0.9,2.7-2.7c0.6-0.9,0.7-1.2,0.8-1.5c0.1-0.7,0.4-1,1.3-1.8
				c0.8-0.6,3.2-2.4,6.4-1.9c1.1,0.2,2.8,0.7,4.5,1.4c0,0,0,0,0,0c0,0,0,0,0,0c0.1,0,0.1,0,0.2,0.1c0,0,0.1,0,0.1,0
				c1.5,0.6,2.9,1.2,3.8,1.8c0.3,0.2,0.6,0.1,0.8-0.2c0.3-0.4,0.6-0.6,0.9-0.8c0.1-0.1,0.2-0.1,0.3-0.2c0.3-0.3,0.3-0.8-0.1-1
				C88.9,61.2,84.7,59.9,83.3,59.5L83.3,59.5z M50.8,60.5c-1.1,4.6-8.2,9.7-11.4,9.7h-0.1c-0.1,0-0.1,0-0.2,0c-0.1,0-0.1,0-0.2,0
				c0,0-0.1,0-0.1,0c-0.6-0.2-1.4-0.6-2-1.2c-0.4-0.4-0.8-0.9-0.9-1.4c0-0.1,0-0.2-0.1-0.3c-0.2-0.8-0.4-1.8,0.3-3.4
				c0.1-0.2,0.2-0.4,0.3-0.6c0-0.1,0.1-0.1,0.1-0.2c0.1-0.2,0.1-0.3,0.2-0.5c0.1-0.2,0.2-0.5,0.2-0.6c0-0.1,0.1-0.1,0.1-0.2
				c0.2-0.6,0.2-0.8,0.2-1c0-0.2,0-0.4,0.1-0.7c0.2-0.9,0.3-1.6,0.4-2.3c0.2-1.2,0.3-2.2,0.9-3.1c0.1-0.2,0.2-0.3,0.4-0.4
				c0,0,0.1-0.1,0.1-0.1c0,0,0.1-0.1,0.1-0.1c0.2-0.1,0.3-0.2,0.5-0.3c0.1,0,0.1-0.1,0.2-0.1c0.1,0,0.3-0.1,0.4-0.1
				c0.6-0.1,1.3-0.2,2.1-0.1c0.9,0.1,1.7,0.2,2.4,0.4c0.6,0.2,1.1,0.4,1.6,0.5c0,0,0.1,0,0.1,0.1c0.1,0,0.2,0.1,0.2,0.1
				c0.1,0.1,0.2,0.1,0.3,0.1c0.1,0.1,0.3,0.1,0.4,0.2l0.1,0c0.5,0.2,0.9,0.5,1.3,0.7c0.2,0.1,0.3,0.3,0.5,0.4c0.1,0,0.1,0.1,0.1,0.1
				c0,0,0.1,0.1,0.1,0.1C51.1,57.8,51.1,59.5,50.8,60.5z M54.1,43.1L54,43.9c-0.3,1.9-1.1,4.5-3.8,5.1c-2.6,0.6-3.2,0.8-5.1,0.9
				c0,0-0.1,0-0.1,0c-1.4,0-4-0.9-4.4-3c-0.3-1.4,0.3-2.4,1.3-4c0.2-0.3,0.3-0.6,0.5-0.9c1.3-2.2,1.8-3.8,2.2-5.1
				c0.4-1.3,0.7-2.3,1.6-3.2c0.2-0.2,0.4-0.4,0.7-0.6c0.2-0.1,0.3-0.2,0.5-0.3c0.2-0.1,0.5-0.2,0.8-0.3c0.6-0.2,1.3-0.3,1.9-0.3
				c1.3,0,2.5,0.4,3.4,1.1c0.4,0.3,1,1,1.3,2.9C55.1,37.2,54.8,39.1,54.1,43.1z M73.5,48.4c-0.9,1.6-1.4,2.5-2.3,3.1
				c-1.6,1.3-3.5,1.6-5,1.6c-1.1,0-2-0.2-2.6-0.3c-1.6-0.3-4.5-0.8-5.5-3.2c-0.2-0.5-0.2-0.8-0.2-1.1c0-0.4,0-1-0.2-2.5l0-0.1
				c-0.1-0.7-0.2-1.4,0-2.4l0-0.1c0.6-2.8,0.7-3.3,0.8-3.5c0.3-0.6,1-0.8,1.5-0.5c0.5,0.3,0.8,0.9,0.5,1.5c-0.1,0.2-0.2,0.8-0.6,3
				l0,0.1c-0.1,0.6-0.1,1.1,0,1.7l0,0.1c0.2,1.6,0.2,2.3,0.2,2.7c0,0.1,0,0.1,0,0.2c0,0,0,0,0,0.1c0.2,0.4,0.5,0.7,1,0.9
				c0.4,0.2,0.8-0.2,0.7-0.6c-0.5-2.5-0.4-5.3,0.5-7c0.3-0.6,0.9-1.6,1.4-2.5c0,0,0,0,0,0c0,0,0,0,0,0c0.1-0.1,0.1-0.2,0.2-0.3
				c0-0.1,0.1-0.2,0.1-0.2c0.2-0.4,0.5-0.8,0.7-1.1c0,0,0-0.1,0.1-0.1c0,0,0-0.1,0.1-0.1c0-0.1,0.1-0.1,0.1-0.2c0,0,0,0,0-0.1
				c0,0,0,0,0,0c0,0,0-0.1,0-0.1c0,0,0.1-0.1,0.1-0.1c0,0,0,0,0,0c0,0,0,0,0,0c0,0,0,0,0,0c0.1-0.2,0.3-0.4,0.4-0.6
				c0.3-0.4-0.1-0.9-0.5-0.7c-0.8,0.4-1.3,0.8-1.4,0.9c-0.5,0.4-1.2,0.3-1.6-0.2c-0.4-0.5-0.3-1.2,0.2-1.6c0.6-0.5,3.7-2.7,7.4-1.7
				c2.7,0.8,4.1,2.8,4.6,3.6c0.4,0.6,1.7,2.5,1.7,5.2C75.9,44.3,75,45.8,73.5,48.4L73.5,48.4z"/>
			<path class="st2" d="M49.4,34.6c-0.2,0.5-0.4,1-0.7,1.6c-0.6,1.4-1.2,3.1-1.5,3.6c-0.5,1-1,1.7-1.3,2.2c-0.4,0.6-0.7,1.1-0.9,1.7
				c-0.4,1.1-0.5,2.4-0.2,3.8c-0.7-0.1-1.9-0.6-2-1.2c-0.1-0.5,0.2-1,1-2.3c0.2-0.3,0.3-0.6,0.5-0.9c1.4-2.4,2-4.2,2.5-5.6
				c0.5-1.4,0.7-2,1.4-2.5C48.6,34.8,49,34.7,49.4,34.6z"/>
			<path class="st2" d="M48,85.6c-0.8,1.6-1.8,3.1-2.4,3.8c-0.5-1.4-1.4-4.5-1.2-7c0-0.1,0-0.1,0-0.2c0.1-0.8,0.3-1.5,0.7-2.1
				c0.2-0.4,0.9-0.6,1.7-0.6c0.6,0,1.2,0.1,1.7,0.4h0c0.3,0.2,0.7,0.5,0.7,1.3C49.3,82.5,48.8,84.1,48,85.6z"/>
			<path class="st2" d="M91.1,67.6c0.1,0,0.1,0.1,0.1,0.2c-0.2,0.5-0.5,0.8-0.8,1.2c-0.4,0.5-0.9,1-1.3,1.9
				c-0.6,1.2-0.8,2.3-0.9,5.1c-0.1,3.3,0,5.1,0.1,6.5c0.1,1.3,0.1,2.1-0.1,3.4c-0.5,2.6-1.6,4.3-2.9,6.4c-1.7,2.7-3.5,5.5-6.5,6.3
				c-0.3,0.1-0.3,0.1-1.1,0.1c-0.7,0-1.8,0-3.9,0.1c-3.9,0.1-5.8,0.2-7.5,0.5c-1.7,0.3-2.7,0.7-3.5,1.1c-0.8,0.3-1.6,0.6-3,0.9
				c-0.9,0.2-2.1,0.4-6.5,0.4c-4.6,0-7.3,0-10.9-0.4c-5-0.6-7.5-0.9-9.2-1.7c-3.9-2.1-5.6-5.9-8.3-12.1c0,0,0,0,0,0
				c0-0.1,0.1-0.2,0.1-0.1c0.1,0.1,0.3,0.1,0.4,0.2c0.1,0,0.2,0.1,0.4,0.1c0.3,0,0.5,0,0.8,0c0,0,0.1,0,0.1,0c0,0,0,0,0,0
				c0,0,0.1,0,0.1,0c0.2,0.5,0.5,0.9,0.9,1.2c0.5,0.2,1,0.3,1.5,0.3c0.5,0,1.1,0,1.6-0.1c0.3,0,0.6,0.1,0.7,0.4c0.5,1.2,1.1,2,2,2.2
				c0,0,0.1,0,0.2,0c0.2,0,0.4,0,0.8-0.3c0.4-0.3,1.1-0.1,1.4,0.3c0.2,0.2,0.4,0.4,0.6,0.6c0.9,1,3.2,1.4,5.1,1.4c1,0,2-0.1,2.5-0.4
				c0.8-0.4,0.8-1,0.7-1.2c-0.1-0.4-0.1-0.8-0.2-1.3c0,0,0.1-0.1,0.1,0c0.1,0.2,0.3,0.6,0.6,0.6c0,0,0.1,0,0.1,0
				c0.5,0,1.4,0.2,1.5,0.7c0.1,0.3,0.2,0.5,0.3,0.7c0.3,0.5,1,1.1,2.3,1.1h0.1c1.5,0,2.6-0.5,3.4-1.4c0-0.1,0.1-0.1,0.1-0.2
				c0.3-0.4,1.1-0.4,1.4-0.1c0.4,0.4,0.9,0.6,1.4,0.6c0.1,0,0.2,0,0.3,0c0.7-0.1,1.2-0.4,1.7-1c0.3-0.4,0.5-0.9,0.6-1.4
				c0-0.2,0.3-0.2,0.4-0.1c0.3,0.3,0.7,0.5,1.4,0.5c0.2,0,0.3,0,0.5-0.1c1.3-0.3,1.9-1.3,2.2-2.5c0,0,0.1-0.1,0.1,0
				c0.3,0.4,0.9,0.9,2,0.9c0.1,0,0.1,0,0.2,0c0.6,0,1-0.3,1.4-0.7c0.4-0.5,0.6-1.3,0.6-2c0-0.3,0.2-0.5,0.5-0.6
				c1.1-0.5,2.4-1.4,2.7-2.1c0,0,0,0,0,0c0.1-0.2,0.3-0.4,0.5-0.4c0.8-0.2,1.2-0.3,1.5-0.5c0.3-0.1,0.5-0.2,1.1-0.3
				c4.9-0.8,5.9-0.9,7-1.6c1.6-1.1,1.7-2.5,1.8-3.9c0.1-1.2,0.1-2.6,1.1-4.2c0.3-0.6,0.7-1.3,1.1-2.1c0.7-1.3,1.7-3.1,2.4-4.2
				c0.2-0.2,0.5-0.3,0.7-0.2C89.4,66.6,90.8,67.3,91.1,67.6L91.1,67.6z"/>
			<path class="st2" d="M43.2,82.3c-0.2,1.7-0.3,4,0,6.9c0.1,0.8,0.2,1.7,0.3,2.6c-0.2,0.1-0.9,0.3-2.2,0.3c-1.8,0-3.5-0.5-4-1
				L37.2,91c-0.4-0.3-0.7-0.6-0.8-1.2c0-0.2,0.1-0.4,0.3-0.7c0.1-0.2,0.2-0.4,0.4-0.6c0.3-0.4,0.7-0.9,1.1-1.5
				c1.1-1.9,1.5-2.5,2.1-3.2c0-0.1,0.1-0.1,0.1-0.2c0.3-0.4,0.7-1,1.2-1.8c0.4-0.6,0.8-1.1,1-1.5c0.5-0.6,0.8-1,1-1.2
				c0,0.3-0.1,0.7-0.2,1.1C43.4,80.7,43.3,81.4,43.2,82.3L43.2,82.3z"/>
			<path class="st2" d="M42.4,55.8C42.4,55.8,42.4,55.8,42.4,55.8c-0.3,0.4-0.5,0.7-0.8,1.4c-0.9,1.9-0.9,3-0.9,3.8
				c0,0.5,0,0.8-0.1,1.2c-0.1,0.3-0.2,0.6-0.4,1c-0.5,1.1-1.2,2.7-0.9,4.7c-0.4-0.2-1-0.6-1.1-0.9c0-0.1,0-0.2-0.1-0.3
				c-0.1-0.6-0.2-1,0.2-2c1.1-2.4,1.2-3,1.3-3.7c0-0.1,0-0.3,0.1-0.4c0.2-1,0.3-1.8,0.4-2.4c0.1-1,0.2-1.7,0.6-2.2
				c0.1-0.2,0.5-0.3,1-0.3c0.2,0,0.4,0,0.7,0L42.4,55.8C42.4,55.8,42.4,55.8,42.4,55.8z"/>
			<path class="st2" d="M41,79.8c-0.1-0.6-0.2-1.2-0.4-1.7c0,0-0.1-0.2-0.1-0.2c0-0.1-0.1-0.1-0.1-0.2c0,0,0,0,0,0c0,0,0,0,0,0
				c0,0,0-0.1-0.1-0.1c0,0-0.1-0.1-0.1-0.1c0,0,0,0,0,0c0,0,0,0-0.1-0.1c0,0-0.1,0-0.1-0.1c0,0,0,0-0.1,0c0,0,0,0,0,0c0,0,0,0,0,0
				c0,0,0,0,0,0c0,0,0,0,0,0s0,0,0,0c0,0,0,0,0,0c-0.3-0.1-0.7-0.3-1-0.3c0,0,0,0,0,0h0c0,0-0.1,0-0.1,0c-0.1,0-0.1,0-0.1,0
				c0,0,0,0-0.1,0h0c0,0,0,0,0,0c0,0,0,0,0,0c0,0,0,0,0,0c-0.1,0-0.2,0-0.2,0.1c0,0-0.1,0-0.1,0.1c0,0-0.1,0-0.1,0.1c0,0,0,0,0,0
				l0,0c0,0-0.1,0.1-0.1,0.1c0,0,0,0.1-0.1,0.1c0,0,0,0,0,0c0,0,0,0,0,0c0,0,0,0,0,0c0,0,0,0,0,0c0,0,0,0,0,0
				c-0.1,0.2-0.3,0.4-0.4,0.6c-0.3,0.5-0.7,1-1,1.5c-0.3,0.4-0.6,0.9-0.9,1.3c-0.2,0.3-0.3,0.5-0.5,0.7c0,0-0.1,0.1-0.1,0.1
				c0.2,0,0.4,0.1,0.6,0.1c0.5,0.1,0.9,0.2,1.4,0.2c1,0.1,1.9,0.2,2.9,0.2c0,0,0.1,0,0.1,0c0.2-0.3,0.5-0.7,0.9-1.3
				c0.2-0.3,0.4-0.6,0.6-0.8C41.1,80.1,41,79.9,41,79.8L41,79.8z"/>
			<path class="st2" d="M37.6,83.7c-0.1,0.7-0.9,2.6-2.2,4.5c-1.1,1.5-1.7,1.9-1.9,1.9c-0.5-0.1-1-1.4-1.4-2.6
				c-0.2-0.5-0.3-1-0.4-1.5c-0.3-1-0.3-2.3-0.3-3.1c1.1,0.6,3,0.8,5.7,0.8h0C37.3,83.7,37.5,83.7,37.6,83.7z"/>
			<path class="st2" d="M35.7,77.7L35.7,77.7C35.7,77.7,35.7,77.7,35.7,77.7c-0.5,0.7-1,1.4-1.4,2.1c-0.2,0.3-0.5,0.7-0.7,1
				c-0.1,0.2-0.3,0.4-0.5,0.6c-0.4-0.1-0.8-0.2-1.1-0.3c-0.3-0.1-0.6-0.2-0.9-0.3c-0.1,0-0.1,0-0.2-0.1c0-0.1-0.1-0.2-0.2-0.3
				c0,0,0,0,0,0c0.1-0.2,0.2-0.4,0.3-0.7c0.2-0.4,0.4-0.8,0.6-1.2c0.4-0.7,0.9-1.4,1.6-1.9c0,0,0.1,0,0.1-0.1
				c0.3-0.2,0.5-0.3,0.9-0.3c0,0,0.3,0,0.4,0c0,0,0,0,0,0h0c0,0,0,0,0,0c0.1,0,0.2,0,0.2,0.1c0,0,0.1,0,0.1,0c0.1,0,0.1,0.1,0.2,0.1
				c-0.1-0.1,0.1,0.2,0.1,0.2C35.6,77.1,35.7,77.3,35.7,77.7z"/>
			<path class="st2" d="M32.1,75.8c-0.9,0.7-1.5,1.6-2,2.6c-0.3,0.5-0.6,1.1-0.8,1.6c0,0.1-0.1,0.1-0.1,0.2
				c-0.3-0.1-0.5-0.1-0.8-0.2c-0.3-0.1-0.5-0.2-0.8-0.3c-0.1-0.1-0.2-0.1-0.4-0.2c0.3-0.5,0.6-0.9,0.8-1.4c0.4-0.6,0.9-1.3,1.3-1.8
				c0.2-0.2,0.4-0.5,0.6-0.6c0.3-0.2,0.6-0.1,0.9-0.1c0.3,0,0.7,0,1,0.1C32,75.7,32,75.7,32.1,75.8z"/>
			<path class="st2" d="M30.7,87.2c0,0-0.1,0.1-0.1,0.1c0,0-0.1,0-0.1,0c-0.2,0-0.4,0-0.6,0c-0.4,0-0.8,0-1.2,0
				c-0.2,0-0.4,0-0.5-0.2C28.1,87,28,86.6,28,86.3c-0.3-1.5-0.3-3-0.1-4.4c0.8,0.3,1.5,0.5,2.3,0.6c-0.2,1.3,0.1,3.3,0.3,3.9
				C30.6,86.6,30.7,86.9,30.7,87.2z"/>
			<path class="st2" d="M28.3,75.3c-0.7,0.8-1.3,1.7-1.8,2.6c-0.2,0.4-0.5,0.8-0.7,1.1c-0.3-0.1-0.5-0.2-0.8-0.3
				c-0.2-0.1-0.4-0.3-0.6-0.4c0,0-0.2-0.1-0.3-0.2c0,0,0,0-0.1,0c0.1-0.2,0.2-0.4,0.2-0.5c0.1-0.3,0.3-0.6,0.5-0.9
				c0.3-0.6,0.7-1.1,1.1-1.6c0.1-0.2,0.3-0.4,0.5-0.5c0.2-0.1,0.5,0,0.7,0C27.6,74.7,28,74.9,28.3,75.3L28.3,75.3z"/>
			<path class="st2" d="M23.1,78.9C23.1,78.8,23.2,78.8,23.1,78.9c0.3,0.2,0.5,0.4,0.8,0.6c0.1,0.1,0.2,0.2,0.3,0.3c0,0,0,0,0,0.1
				c-0.3,1.1-0.5,2.3-0.5,3.5c0,0.1-0.1,0.1-0.1,0C23.3,81.9,22.9,79.7,23.1,78.9z"/>
			<path class="st2" d="M26.4,81.4c-0.1,1-0.2,2-0.2,3c0,0.6,0.1,1.1,0.2,1.7c0,0,0,0,0,0v0c-0.1,0-0.2,0-0.4,0c0,0,0,0-0.1,0h0
				c0,0,0,0-0.1,0c-0.1,0-0.2,0-0.3-0.1c-0.1-0.1-0.3-0.3-0.4-0.4c-0.3-0.5-0.3-1-0.4-1.6c0-1,0-2.1,0.2-3.1
				c0.2,0.1,0.3,0.1,0.6,0.2C25.9,81.1,26.2,81.2,26.4,81.4L26.4,81.4L26.4,81.4z"/>
		</g>
		<g class="st3">
			
				<linearGradient id="SVGID_00000182528869478606650920000010594225191461707183_" gradientUnits="userSpaceOnUse" x1="-7.3766" y1="141.5916" x2="136.0135" y2="-8.9039" gradientTransform="matrix(1 0 0 -1 0 129)">
				<stop  offset="0.2057" style="stop-color:#89D0FF"/>
				<stop  offset="0.3984" style="stop-color:#EBBF9A"/>
				<stop  offset="0.6015" style="stop-color:#EB8280"/>
				<stop  offset="0.8411" style="stop-color:#A281FF"/>
			</linearGradient>
			
				<path style="fill:none;stroke:url(#SVGID_00000182528869478606650920000010594225191461707183_);stroke-width:1.0169;stroke-miterlimit:10;" d="
				M52.9,133.8c-4.6,0-8.9-0.3-12.6-0.6l-1-0.1l-1-0.1c-0.4-0.1-1-0.1-1.6-0.2c-3.5-0.4-10-1.1-17.2-4.5l-1.1-0.5l-1-0.6
				c-13.8-7.8-19-19.4-21.8-25.7c-0.2-0.4-0.4-0.9-0.6-1.3c-1.4-2.9-2.3-5.5-3.1-7.9l-0.2-0.5l-0.1-0.5c-2-7.1-2.5-13.3-1.6-19.4
				c0.9-6.1,3.2-11.7,7.1-17.5l2-3.3c0.4-0.7,0.7-1.4,0.9-2.2c1.6-7.7,5.1-13.2,6.8-15.8c0.5-3.2,1.3-6.3,2.4-9.3l0.2-0.5L9.6,23
				c0-0.1,0.1-0.2,0.1-0.4c0.8-2.3,2.6-7.8,7.3-13.6l1.8-2.1l1.8-1.6c4.6-4.2,10.1-7.3,16-9.1c3.3-1,6.8-1.6,10.2-1.8l0.3,0l0.5,0
				c0.6,0,1.2,0,1.8,0c2.2,0,4.3,0.2,6.4,0.5c1.3,0.2,2.7,0.1,3.9-0.5c3.7-1.5,7.6-2.6,11.5-3.1c0.3,0,0.6-0.1,0.8-0.1
				C72.8-8.9,73.8-9,75-9.1c2.1-0.2,5.3-0.4,8.8-0.4c6.8,0,12.7,0.9,17.9,2.7l0.4,0.2l0.4,0.2C114.1-2.2,120,3.9,124.3,9.3l0.2,0.3
				l0.6,0.5c3.8,3,7.1,6.7,9.6,10.8l0.8,1.3l0.7,1.4c5.7,11.5,3.9,22.2,3.2,26.2l0,0.2c-0.5,3-1.3,5.9-2.3,8.7c-0.4,2.7-1,5.4-1.9,8
				c-1.5,4.6-3.7,8.9-6.6,12.8c-1.6,2.3-3.5,4.5-5.5,6.5c-0.7,0.7-1.2,1.6-1.3,2.6c-0.1,0.6-0.2,1.2-0.3,1.8
				c-1.7,8.9-5.5,15.1-7.1,17.6l-4.8,6.9c-5.8,7.2-12.6,12-20.9,14.5l-2,0.6l-2.2,0.4c-2.5,0.4-5,0.7-7.5,0.7c-0.3,0-0.7,0-1.1,0
				h-0.1l-0.4,0l-0.5,0h0c-1,0-1.9,0.2-2.8,0.5C66.4,133.1,60.4,133.8,52.9,133.8L52.9,133.8z"/>
			
				<linearGradient id="SVGID_00000141423442075005936770000011239799269208407974_" gradientUnits="userSpaceOnUse" x1="-1.7834" y1="135.1562" x2="130.4175" y2="-4.1637" gradientTransform="matrix(1 0 0 -1 0 129)">
				<stop  offset="0.2057" style="stop-color:#89D0FF"/>
				<stop  offset="0.3984" style="stop-color:#EBBF9A"/>
				<stop  offset="0.6015" style="stop-color:#EB80DA"/>
				<stop  offset="0.8411" style="stop-color:#A281FF"/>
			</linearGradient>
			
				<path style="fill:none;stroke:url(#SVGID_00000141423442075005936770000011239799269208407974_);stroke-width:1.0169;stroke-miterlimit:10;" d="
				M52.9,129.1c-4.4,0-8.6-0.3-12.1-0.6l-0.8-0.1l-0.8-0.1c-0.5-0.1-1.2-0.1-1.8-0.2c-3.4-0.4-9.1-1-15.4-4l-0.9-0.4l-0.9-0.5
				c-12.2-6.8-16.7-17-19.4-23.1c-0.2-0.4-0.4-1-0.6-1.4c-1.3-2.6-2.1-5-2.8-7.2l-0.1-0.4L-3,90.7c-1.8-6.3-2.2-11.8-1.4-17
				c0.8-5.3,2.8-10.2,6.3-15.3l2.6-4.3c0.5-0.8,0.8-1.6,0.9-2.5c1.3-7.3,4.7-12.4,6.3-14.7l0.2-0.3l0.1-0.1c0-0.1,0.1-0.1,0.1-0.2
				c0.1-0.3,0.2-0.6,0.3-0.9c0.4-3,1.1-5.9,2.2-8.7l0.1-0.4l0.1-0.4c0-0.1,0.1-0.3,0.2-0.6c0.7-2.2,2.3-6.9,6.3-11.9l1.5-1.8
				l1.5-1.3c4-3.6,8.7-6.3,13.9-7.8c2.9-0.9,6-1.4,9-1.6l0.3,0l0.4,0c0.5,0,1,0,1.5,0c2.2,0,4.4-0.6,6.5-0.2
				c1.7,0.3,3.4,0.2,4.9-0.5c2.9-1.3,6.8-1.8,11.2-2.3c0.3,0,0.6-0.1,0.8-0.1c0.6-0.1,1.5-0.2,2.7-0.3c2-0.2,5-0.4,8.3-0.4
				c6.2,0,11.4,0.8,16.1,2.4l0.4,0.1l0.4,0.1c10.3,3.9,15.3,9.1,19.3,14.1c0.2,0.3,0.4,0.6,0.5,0.7l0.1,0.1l0.7,0.7l0.1,0.1
				c3.4,2.6,6.3,5.8,8.5,9.5l0.7,1.1l0.6,1.1c4.9,9.9,3.3,19,2.7,22.8l0,0.2c-0.5,2.8-1.2,5.6-2.3,8.2c-0.3,2.6-0.9,5.1-1.7,7.6
				c-1.3,4.1-3.3,7.9-5.8,11.4c-1.7,2.4-3.7,4.7-5.9,6.6c-1,0.9-1.7,2.2-1.8,3.5c-0.1,1-0.3,2-0.4,2.9c-1.5,7.9-4.9,13.3-6.4,15.7
				l-3.9,5.7c-5.2,6.6-11.3,11-18.7,13.3l-1.7,0.5l-1.8,0.3c-2.2,0.4-4.4,0.6-6.6,0.6c-0.3,0-0.6,0-1,0h-0.1h-0.2c0,0-0.1,0-0.2,0
				l-0.4,0l-0.4,0l-0.8,0c-1,0-2,0.2-3,0.5C65.7,128.4,60,129.1,52.9,129.1L52.9,129.1z"/>
			
				<linearGradient id="SVGID_00000018926877279537429350000007481870970093443753_" gradientUnits="userSpaceOnUse" x1="3.8388" y1="129.5682" x2="124.8398" y2="1.4364" gradientTransform="matrix(1 0 0 -1 0 129)">
				<stop  offset="0.2057" style="stop-color:#89D0FF"/>
				<stop  offset="0.3984" style="stop-color:#EBBF9A"/>
				<stop  offset="0.6015" style="stop-color:#EB8280"/>
				<stop  offset="0.8411" style="stop-color:#A281FF"/>
			</linearGradient>
			
				<path style="fill:none;stroke:url(#SVGID_00000018926877279537429350000007481870970093443753_);stroke-width:0.9533;stroke-miterlimit:10;" d="
				M52.9,123.5c-4.2,0-8.3-0.3-11.7-0.5l-0.7-0.1l-0.7-0.1c-0.6-0.1-1.3-0.2-1.9-0.2c-3.3-0.4-8.2-0.9-13.7-3.5l-0.7-0.4l-0.7-0.4
				c-10.6-5.9-14.5-14.7-17-20.5c-0.2-0.5-0.5-1.1-0.7-1.6c-1.1-2.3-1.9-4.4-2.5-6.4l-0.1-0.4l-0.1-0.3c-1.6-5.6-2-10.2-1.3-14.7
				c0.7-4.5,2.5-8.8,5.6-13.3l0.4-0.5l0.4-0.5c0.3-0.3,0.5-0.6,0.7-1l1.6-2.9c0.5-0.9,0.9-2,1-3c1-6.5,4.1-11.1,5.6-13.3l0,0
				c0.1-0.1,0.2-0.3,0.2-0.4l0.3-0.5c0.1-0.3,0.3-0.6,0.4-1c0.1-0.4,0.3-1,0.5-1.5c0.3-2.8,1-5.5,1.9-8.1l0.1-0.3l0.1-0.3
				c0.1-0.3,0.2-0.5,0.3-0.9c0.7-2.1,2-5.9,5.4-10.1l1.2-1.4l1.2-1.1c3.4-3.1,7.4-5.3,11.8-6.6C42.3,7,45,6.6,47.6,6.4l0.2,0l0.3,0
				c0.4,0,0.8,0,1.3,0c2.3,0,4.5,0.3,6.7,0.9c1.9,0.5,3.9,0.3,5.7-0.6c2.8-1.4,6.6-2.8,11-3.4c0.3,0,0.6-0.1,0.8-0.1
				C74.1,3.1,75,3,76.1,2.9c1.8-0.2,4.7-0.4,7.7-0.4c5.5,0,10.2,0.7,14.2,2.1l0.3,0.1l0.3,0.1c9.4,3.6,13.6,8.2,16.8,12.3
				c0.7,0.9,0.8,1,1.3,1.5l0.6,0.5l0.2,0.2c1.5,1.2,4.7,3.7,7.5,8.2l0.5,0.9l0.4,0.9c4.1,8.3,2.8,15.8,2.2,19.4l0,0.2
				c-0.4,2.6-1.2,5.2-2.2,7.7l0,0.2c-0.3,2.4-0.8,4.7-1.6,7c-1.2,3.5-2.9,6.9-5,9.9c-1.8,2.6-4,5-6.5,7c-0.6,0.5-1.1,1.1-1.4,1.7
				c-0.3,0.7-0.5,1.4-0.6,2.2c-0.1,1.5-0.2,3-0.5,4.4c-1.3,6.8-4.2,11.5-5.8,13.9l-3,4.5c-4.5,6.1-9.9,10-16.4,12l-1.3,0.4l-1.4,0.3
				c-1.9,0.3-3.7,0.5-5.6,0.5c-0.3,0-0.6,0-0.9,0h-0.1h-0.3c-0.1,0-0.2,0-0.6,0l-0.3,0l-0.3,0l-1.6,0.1c-1.1,0-2.2,0.2-3.2,0.6
				C65,122.8,59.6,123.5,52.9,123.5L52.9,123.5z"/>
			
				<linearGradient id="SVGID_00000183938860279695673400000005945234036519235968_" gradientUnits="userSpaceOnUse" x1="9.4579" y1="123.9626" x2="119.2341" y2="7.0519" gradientTransform="matrix(1 0 0 -1 0 129)">
				<stop  offset="0.2057" style="stop-color:#89D0FF"/>
				<stop  offset="0.3984" style="stop-color:#EBBF9A"/>
				<stop  offset="0.6015" style="stop-color:#EB80E7"/>
				<stop  offset="0.8411" style="stop-color:#A281FF"/>
			</linearGradient>
			
				<path style="fill:none;stroke:url(#SVGID_00000183938860279695673400000005945234036519235968_);stroke-width:0.8898;stroke-miterlimit:10;" d="
				M52.9,117.9c-4,0-7.9-0.3-11.3-0.5l-0.5,0l-0.5-0.1c-0.7-0.1-1.4-0.2-2.1-0.3c-3.1-0.3-7.2-0.8-11.9-3l-0.6-0.3l-0.5-0.3
				c-9-5-12.3-12.4-14.7-17.9c-0.2-0.6-0.5-1.1-0.8-1.7c-1-2.1-1.7-4-2.2-5.7L7.8,88l-0.1-0.3c-2.6-9.3-1.6-15.8,3.5-23.3l0.3-0.4
				l0.3-0.4c0.3-0.4,0.7-0.9,1-1.3c0.5-0.6,1-1.3,1.5-1.9c0.3-0.4,0.6-0.9,0.8-1.3l0.6-1.5c0.3-0.6,0.4-1.3,0.5-2
				c0.5-6,3.4-10.3,4.9-12.5l0,0c0.1-0.2,0.3-0.4,0.3-0.5l0.3-0.5l0.1-0.1c0.2-0.4,0.5-1.1,0.8-1.9c0.2-0.5,0.4-1.4,0.7-2.2
				c0,0,0-0.1,0-0.1c0.3-2.5,0.9-5,1.7-7.3l0.1-0.2l0.1-0.2c0.2-0.4,0.3-0.7,0.4-1.2c0.6-1.8,1.6-4.9,4.4-8.3l0.9-1.1l0.9-0.8
				c6.5-5.9,13.8-6.4,16.2-6.6l0.2,0l0.3,0c0.3,0,0.7,0,1,0c2.9,0,5.7,0.6,8.4,1.7c0.5,0.2,1,0.3,1.5,0.3c0.5,0,1-0.2,1.5-0.4h0
				c2.5-1.4,7-4,12.8-4.7c0.3,0,0.5-0.1,0.7-0.1c0.5-0.1,1.3-0.2,2.3-0.3c1.7-0.2,4.4-0.4,7.2-0.4c4.9,0,9,0.6,12.4,1.8l0.2,0.1
				l0.2,0.1c8.1,3,11.6,6.9,14.4,10.5c0.8,1,1.1,1.4,2,2.2l0.4,0.4l0.4,0.4l0.3,0.2c1.4,1.1,3.9,3,6.2,6.7l0.4,0.6l0.3,0.7
				c3.3,6.7,2.3,12.8,1.7,16.1l0,0.2c-0.4,2.4-1.1,4.7-2,6.9l-0.1,0.2c0,0,0,0.1,0,0.2c0,0.2-0.1,0.4-0.1,0.6l0,0.3
				c-0.2,2-0.7,4-1.3,5.9c-1,3-2.4,5.8-4.3,8.4c-1.8,2.6-3.9,4.7-6.2,6.4c-1,0.7-1.9,1.7-2.4,2.8c-0.6,1.1-0.9,2.4-0.9,3.6
				c0,1.6-0.2,3.1-0.5,4.7c-1.1,5.8-3.5,9.7-5.1,12.1l-2.2,3.3c-3.9,5.5-8.6,9-14.1,10.7l-0.3,0.1c-0.5,0.1-1,0.3-1.4,0.3l-0.4,0.1
				c-1.5,0.3-3.1,0.4-4.7,0.4c-0.3,0-0.5,0-0.8,0h0c-0.1,0-0.3,0-0.4,0c-0.1,0-0.4,0-0.9,0l-0.2,0l-0.2,0c-0.7,0-1.7,0.1-2.5,0.1
				c-1.1,0-2.3,0.3-3.3,0.7C64.2,117.3,59.3,117.9,52.9,117.9L52.9,117.9z"/>
			<g>
				
					<linearGradient id="SVGID_00000095335224138123439280000007076829649773760943_" gradientUnits="userSpaceOnUse" x1="15.0664" y1="118.3675" x2="113.6387" y2="12.6871" gradientTransform="matrix(1 0 0 -1 0 129)">
					<stop  offset="0.2057" style="stop-color:#89D0FF"/>
					<stop  offset="0.3984" style="stop-color:#EBBF9A"/>
					<stop  offset="0.6015" style="stop-color:#EB80D3"/>
					<stop  offset="0.8411" style="stop-color:#A281FF"/>
				</linearGradient>
				
					<path style="fill:none;stroke:url(#SVGID_00000095335224138123439280000007076829649773760943_);stroke-width:0.8262;stroke-miterlimit:10;" d="
					M52.9,112.3c-3.8,0-7.6-0.3-10.8-0.5l-0.3,0l-0.3,0c-0.8-0.1-1.5-0.2-2.3-0.3c-2.8-0.3-6.3-0.7-10.1-2.5l-0.4-0.2l-0.3-0.2
					C21,104.5,18.2,98.4,16,93.4c-0.3-0.6-0.6-1.2-0.8-1.9c-0.9-1.7-1.4-3.5-1.9-5l-0.1-0.2l0-0.2c-2.2-7.7-1.4-12.6,2.7-18.6
					l0.2-0.3l0.2-0.3c0.4-0.5,0.7-0.9,1-1.3c1.1-1.4,2.1-2.8,3.7-4.5c0.3-0.4,0.5-0.8,0.6-1.3l0.1-1.8l0-0.6l0-0.6
					c0.2-5,2.7-8.7,4-10.7c0.2-0.2,0.3-0.5,0.4-0.6l0.2-0.4l0.2-0.3c0.2-0.4,0.9-1.8,1.4-3.1c0.2-0.6,0.5-1.6,0.8-2.5
					c0.1-0.3,0.1-0.3,0.2-0.9c0.2-2.1,0.7-4.1,1.4-6.1l0.1-0.2l0.1-0.2c0.2-0.5,0.4-1,0.5-1.5c0.5-1.6,1.3-4,3.4-6.6l0.6-0.7
					l0.6-0.5c4.6-4.1,9.5-4.9,12.9-5.1l0.1,0h0.2c0.2,0,0.5,0,0.7,0c2.9,0,6.3,1.4,8.1,2.2c0.4,0.2,0.9,0.3,1.4,0.3
					c0.5,0,0.9-0.1,1.4-0.2c1.1-0.4,2.2-0.9,3.3-1.4c2.3-1.3,6.1-3.5,10.8-4.1c0.3,0,0.5-0.1,0.7-0.1c0.5-0.1,1.2-0.1,2.1-0.2
					c1.6-0.2,4.1-0.3,6.7-0.3c4.3,0,7.7,0.5,10.6,1.5l0.1,0.1l0.1,0.1c6.7,2.5,9.4,5.5,12,8.8c0.8,1.1,1.4,1.8,2.7,2.9l0.3,0.3
					l0.3,0.3c0.3,0.2,0.5,0.5,0.8,0.7c1.2,0.9,3.1,2.4,4.8,5.2l0.3,0.4l0.2,0.5c2.5,5.1,1.7,9.8,1.2,12.7l0,0.2
					c-0.3,2-0.9,3.9-1.7,5.7v0c-0.2,0.5-0.4,1-0.4,1.5c-0.1,0.4-0.1,0.6-0.1,1l0,0.3c-0.2,1.6-0.5,3.2-1.1,4.8
					c-0.8,2.5-2,4.8-3.5,6.9c-2.3,3.2-4.9,5.5-8.1,7c-0.8,0.4-1.4,0.9-1.9,1.6c-0.5,0.7-0.7,1.5-0.8,2.4c0,0.3,0,0.6,0,0.8
					c0.2,2.4,0.3,5.2-0.2,8.1c-0.9,4.7-2.9,7.9-4.4,10.2c0,0-6.9,9.6-13.2,11.5l-0.7,0.2l-0.7,0.1c-1.2,0.2-2.5,0.3-3.7,0.3
					c-0.2,0-0.5,0-0.7,0h0c-0.2,0-0.3,0-0.6,0c-0.2,0-0.6,0-1.3,0l-0.2,0h-0.2c-2.4,0.1-4.7,0.2-5.3,0.3c-0.3,0.1-0.7,0.1-1,0.3
					C64,111.6,59.4,112.3,52.9,112.3L52.9,112.3z"/>
				
					<linearGradient id="SVGID_00000110430305491256558780000006263124539407066792_" gradientUnits="userSpaceOnUse" x1="20.688" y1="112.7953" x2="108.0583" y2="18.2927" gradientTransform="matrix(1 0 0 -1 0 129)">
					<stop  offset="0.2057" style="stop-color:#89D0FF"/>
					<stop  offset="0.3984" style="stop-color:#EBBF9A"/>
					<stop  offset="0.6015" style="stop-color:#A280EB"/>
					<stop  offset="0.8411" style="stop-color:#A281FF"/>
				</linearGradient>
				
					<path style="fill:none;stroke:url(#SVGID_00000110430305491256558780000006263124539407066792_);stroke-width:0.8262;stroke-miterlimit:10;" d="
					M52.9,106.8c-3.6,0-7.3-0.2-10.4-0.5l-0.2,0l-0.2,0c-0.9-0.1-1.7-0.2-2.4-0.3c-2.6-0.3-5.4-0.6-8.4-2l-0.2-0.1l-0.2-0.1
					c-5.7-3.2-7.9-8-9.9-12.7c-0.3-0.7-0.6-1.3-0.9-2c-0.7-1.4-1.2-2.9-1.6-4.3l0-0.1l0-0.1c-1.7-6.1-1.3-9.2,2-13.9l0.1-0.1
					l0.1-0.1c0.4-0.5,0.7-0.9,1.1-1.4c1.6-2,2.9-3.8,5.9-6.6l0,0c0.2-0.2,0.4-0.5,0.4-0.8c0.1-0.3,0.1-0.6,0-0.9l-0.5-1.5
					c-0.1-0.5-0.2-1-0.2-1.5v0l0-0.4l0-0.3c0.1-3.4,1.9-6,3.1-7.8c0.2-0.3,0.4-0.5,0.5-0.8l0.1-0.2l0.1-0.2c0.6-0.8,1.6-3.2,2.2-4.6
					c0.1-0.4,0.5-1.6,0.8-2.5c0.2-0.6,0.3-1.3,0.4-2c0.2-1.7,0.6-3.3,1.1-4.9l0-0.1l0-0.1c0.3-0.7,0.4-1.2,0.6-1.7
					c0.5-1.4,1-3,2.5-4.8l0.3-0.4l0.3-0.3c3.2-2.9,6.8-3.5,9.5-3.7h0.1H49c0.2,0,0.3,0,0.5,0c2.7,0,4.7,1.1,6.1,1.8l0.3,0.2l0,0
					c0.4,0.2,0.7,0.4,1,0.5c0.8,0.4,1.8,0.5,2.7,0.3c1.9-0.5,4.7-1.6,6.7-2.7l0,0c2-1.2,5.1-3,8.7-3.4c0.2,0,0.4-0.1,0.7-0.1
					c0.4-0.1,1.1-0.1,2-0.2c1.5-0.1,3.8-0.3,6.1-0.3c3.6,0,6.5,0.4,8.8,1.2l0.1,0l0.1,0c5.4,2,7.4,4.2,9.6,7
					c0.9,1.1,1.7,2.2,3.3,3.6l0.1,0.1l0.1,0.1c0.4,0.4,0.9,0.8,1.4,1.2c1,0.7,2.3,1.8,3.5,3.7l0.1,0.2l0.1,0.2
					c1.7,3.5,1.1,6.8,0.7,9.3l0,0.2c-0.2,1.5-0.7,3.1-1.3,4.5c-0.4,0.8-0.6,1.7-0.8,2.6c-0.1,0.5-0.2,0.9-0.2,1.3l0,0.3
					c-0.1,1.3-0.4,2.5-0.8,3.7c-0.6,2-1.6,3.8-2.8,5.4c-2.1,2.9-4.3,4.8-7.4,5.7c-1.4,0.5-2.7,1.4-3.5,2.7l-0.2,0.4l-0.3,0.3
					c-0.8,0.9-0.6,4.3-0.4,6.3c0.1,2.2,0.3,4.5-0.1,6.7c-0.7,3.7-2.3,6.2-3.7,8.4c0,0-5.3,7.6-10,9l-0.3,0.1l-0.4,0.1
					c-0.9,0.2-1.8,0.2-2.7,0.2c-0.2,0-0.4,0-0.6,0c-0.2,0-0.4,0-0.7,0c-0.3,0-0.8,0-1.6,0.1h-0.1h-0.1c-3.2,0.1-5.1,0.2-6.2,0.4
					c-0.7,0.1-1.4,0.3-2.1,0.6C62.6,106.2,58.6,106.8,52.9,106.8L52.9,106.8z"/>
			</g>
		</g>
	</g>
</g>
</svg>
